<?xml version="1.0" standalone="no"?>
<!DOCTYPE svg PUBLIC "-//W3C//DTD SVG 1.1//EN" "http://www.w3.org/Graphics/SVG/1.1/DTD/svg11.dtd">
<svg id="a" xmlns="http://www.w3.org/2000/svg" viewBox="0 0 426.78 471.49" width="426.7799987792969" height="471.489990234375"><defs><style>.b{fill:#45e5e5;}.c{fill:#10293f;}</style></defs><g><g><path class="c" d="M54.02,417.94c.92,0,1.38,.46,1.38,1.38v5.89c0,.99-.46,1.45-1.38,1.45H14.85c-3.67,0-5.05,2.07-5.05,5.35v3.21c0,3.52,1.53,5.35,5.05,5.35h29.83c8.41,0,12.7,4.51,12.7,12.55v6.27c0,7.19-3.9,12.09-12.85,12.09H1.77c-.92,0-1.38-.46-1.38-1.38v-5.89c0-.99,.46-1.45,1.38-1.45H42.77c3.67,0,5.05-2.07,5.05-5.36v-3.82c0-3.52-1.53-5.35-4.97-5.35H13.01c-8.41,0-12.7-4.51-12.7-12.55v-5.58c0-7.27,3.9-12.16,12.77-12.16H54.02Z"/><path class="c" d="M74.67,417.94c.92,0,1.38,.46,1.38,1.38v50.79c0,.92-.46,1.38-1.38,1.38h-6.73c-.92,0-1.38-.46-1.38-1.38v-50.79c0-.92,.46-1.38,1.38-1.38h6.73Z"/><path class="c" d="M99.22,417.94c3.9,0,4.97,.84,6.96,4.9l19.12,39.47c.31,.54,.61,.77,1.15,.77h.76c.61,0,.92-.23,1.22-.77l19.05-39.47c1.91-4.05,3.06-4.9,6.96-4.9h6.65c4.51,0,5.81,1.84,5.81,6.73v45.44c0,.92-.46,1.38-1.45,1.38h-6.35c-.92,0-1.38-.46-1.38-1.38v-42.3c0-.54-.15-.76-.61-.76h-.84c-.54,0-.84,.15-1.07,.61l-18.74,37.64c-2.22,4.51-3.98,6.2-8.26,6.2h-2.98c-4.28,0-6.04-1.68-8.26-6.2l-18.74-37.64c-.23-.46-.46-.61-1.07-.61h-.77c-.46,0-.69,.23-.69,.76v42.3c0,.92-.46,1.38-1.38,1.38h-6.35c-.92,0-1.38-.46-1.38-1.38v-45.44c0-4.9,1.22-6.73,5.74-6.73h6.88Z"/><path class="c" d="M220.31,417.94c11.55,0,16.22,5.43,16.22,15.61v5.2c0,10.25-4.67,15.68-16.22,15.68h-33.43v15.68c0,.92-.46,1.38-1.38,1.38h-6.73c-.92,0-1.38-.46-1.38-1.38v-49.87c0-1.53,.77-2.3,2.3-2.3h40.62Zm-33.43,28.23h31.59c6.2,0,8.49-2.83,8.49-8.34v-2.98c0-5.51-2.3-8.34-8.49-8.34h-30.67c-.61,0-.92,.31-.92,.92v18.74Z"/><path class="c" d="M252.44,417.94c.92,0,1.38,.46,1.38,1.38v31.06c0,9.26,2.91,12.24,12.01,12.24h30.98c.99,0,1.45,.46,1.45,1.38v6.12c0,.92-.46,1.38-1.45,1.38h-31.29c-15.38,0-21.19-5.51-21.19-20.19v-31.98c0-.92,.46-1.38,1.38-1.38h6.73Z"/><path class="c" d="M359.68,417.94c.92,0,1.38,.46,1.38,1.38v5.89c0,.99-.46,1.45-1.38,1.45h-33.51c-9.1,0-12.01,2.91-12.01,12.16v1.76h45.06c.92,0,1.38,.38,1.38,1.38v4.9c0,.92-.46,1.38-1.38,1.38h-45.06v2.37c0,9.26,2.91,12.16,12.01,12.16h33.51c.92,0,1.38,.46,1.38,1.45v5.89c0,.92-.46,1.38-1.38,1.38h-33.58c-15.38,0-21.19-5.51-21.19-20.19v-13.16c0-14.69,5.81-20.19,21.19-20.19h33.58Z"/><path class="c" d="M423.09,417.94c.92,0,1.38,.46,1.38,1.38v5.89c0,.99-.46,1.45-1.38,1.45h-39.17c-3.67,0-5.05,2.07-5.05,5.35v3.21c0,3.52,1.53,5.35,5.05,5.35h29.83c8.41,0,12.7,4.51,12.7,12.55v6.27c0,7.19-3.9,12.09-12.85,12.09h-42.76c-.92,0-1.38-.46-1.38-1.38v-5.89c0-.99,.46-1.45,1.38-1.45h41c3.67,0,5.05-2.07,5.05-5.36v-3.82c0-3.52-1.53-5.35-4.97-5.35h-29.83c-8.41,0-12.7-4.51-12.7-12.55v-5.58c0-7.27,3.9-12.16,12.78-12.16h40.92Z"/></g><g><path class="c" d="M34.31,314.15c10.01,0,14.3,1.82,17.8,13.13l16.24,52.76c.26,.78,.78,1.17,1.56,1.17h1.82c.78,0,1.3-.39,1.56-1.17l16.11-52.76c3.51-11.31,7.8-13.13,17.8-13.13h18.97c11.96,0,14.69,4.55,14.69,17.67v69.4c0,2.6-1.3,3.9-3.9,3.9h-18.32c-2.6,0-3.9-1.3-3.9-3.9v-59.78c0-.91-.26-1.3-.91-1.3h-.91c-.78,0-1.3,.26-1.43,.91l-15.08,47.04c-4.16,13-10.27,17.02-21.7,17.02h-8.58c-11.44,0-17.54-4.03-21.7-17.02l-15.08-47.04c-.13-.65-.65-.91-1.43-.91h-.91c-.65,0-.91,.39-.91,1.3v59.78c0,2.6-1.3,3.9-3.9,3.9H3.9c-2.6,0-3.9-1.3-3.9-3.9v-69.4c0-13.13,2.73-17.67,14.69-17.67h19.62Z"/><path class="c" d="M216.77,314.15c8.84,0,14.3,2.47,19.75,13.13l38.08,73.95c1.17,2.21,.78,3.9-2.08,3.9h-23c-2.08,0-2.99-.52-3.77-2.08l-6.76-13.65h-51.72l-6.63,13.65c-.78,1.56-1.69,2.08-3.77,2.08h-23.65c-2.86,0-3.25-1.69-2.08-3.9l37.3-73.95c5.46-10.66,10.92-13.13,17.93-13.13h10.4Zm-19.62,54.84h31.71l-14.3-28.72c-.39-.65-.78-.91-1.43-.91h-.65c-.65,0-1.04,.26-1.43,.91l-13.91,28.72Z"/><path class="c" d="M308.26,314.15c2.6,0,3.9,1.3,3.9,3.9v83.17c0,2.6-1.3,3.9-3.9,3.9h-19.49c-2.6,0-3.9-1.3-3.9-3.9v-83.17c0-2.6,1.3-3.9,3.9-3.9h19.49Z"/><path class="c" d="M419.5,314.15c2.6,0,3.9,1.3,3.9,3.9v16.89c0,2.6-1.3,3.9-3.9,3.9h-62.12c-2.21,0-3.38,1.17-3.38,3.64v2.34c0,2.47,1.04,3.64,3.25,3.64h44.71c15.98,0,24.82,8.84,24.82,24.04v10.27c0,13.39-8.45,22.35-25.21,22.35h-70.83c-2.6,0-3.9-1.3-3.9-3.9v-16.89c0-2.6,1.3-3.9,3.9-3.9h65.37c2.21,0,3.38-1.17,3.38-3.64v-2.99c0-2.47-1.04-3.64-3.25-3.64h-44.71c-15.98,0-24.82-8.84-24.82-24.04v-9.62c0-13.39,8.45-22.35,25.21-22.35h67.58Z"/></g></g><path class="b" d="M236.11,290.39h-47.42c-10.18,0-18.46-8.28-18.46-18.46v-83.57H86.65c-10.18,0-18.46-8.28-18.46-18.46v-49.41c0-10.18,8.28-18.46,18.46-18.46h55.46c5.1,0,9.23,4.13,9.23,9.23s-4.13,9.23-9.23,9.23h-55.46v49.41h83.57c10.18,0,18.46,8.28,18.46,18.46v83.57h47.42v-20.07c0-15.6-2.97-30.84-8.82-45.3l-46.88-115.8c-6.75-16.67-10.17-34.24-10.17-52.23V18.46c0-10.18,8.28-18.46,18.46-18.46h49.41c10.18,0,18.46,8.28,18.46,18.46V102.03h83.57c10.18,0,18.46,8.28,18.46,18.46v49.41c0,10.18-8.28,18.46-18.46,18.46h-57.04c-5.1,0-9.23-4.13-9.23-9.23s4.13-9.23,9.23-9.23h57.04v-49.41h-83.57c-10.18,0-18.46-8.28-18.46-18.46V18.46h-49.41v20.07c0,15.6,2.97,30.84,8.82,45.3l46.88,115.8c6.75,16.67,10.17,34.25,10.17,52.23v20.07c0,10.18-8.28,18.46-18.46,18.46Z"/></svg>