<?xml version="1.0" standalone="no"?>
<!DOCTYPE svg PUBLIC "-//W3C//DTD SVG 1.1//EN" "http://www.w3.org/Graphics/SVG/1.1/DTD/svg11.dtd">
<svg id="a" xmlns="http://www.w3.org/2000/svg" viewBox="0 0 1080.87 272.8" width="1080.8699951171875" height="272.79998779296875"><defs><style>.b{fill:#45e5e5;}.c{fill:#10293f;}</style></defs><g><g><path class="c" d="M434.56,179.96c1.59,0,2.39,.8,2.39,2.39v10.21c0,1.72-.8,2.52-2.39,2.52h-67.91c-6.37,0-8.75,3.58-8.75,9.28v5.57c0,6.1,2.65,9.28,8.75,9.28h51.73c14.59,0,22.02,7.83,22.02,21.75v10.87c0,12.47-6.76,20.96-22.28,20.96h-74.14c-1.59,0-2.39-.8-2.39-2.39v-10.21c0-1.72,.8-2.52,2.39-2.52h71.09c6.37,0,8.75-3.58,8.75-9.28v-6.63c0-6.1-2.65-9.28-8.62-9.28h-51.73c-14.59,0-22.02-7.83-22.02-21.75v-9.68c0-12.6,6.76-21.09,22.15-21.09h70.96Z"/><path class="c" d="M470.37,179.96c1.59,0,2.39,.8,2.39,2.39v88.07c0,1.59-.8,2.39-2.39,2.39h-11.67c-1.59,0-2.39-.8-2.39-2.39v-88.07c0-1.59,.8-2.39,2.39-2.39h11.67Z"/><path class="c" d="M512.94,179.96c6.76,0,8.62,1.46,12.07,8.49l33.16,68.44c.53,.93,1.06,1.33,1.99,1.33h1.33c1.06,0,1.59-.4,2.12-1.33l33.02-68.44c3.32-7.03,5.31-8.49,12.07-8.49h11.54c7.83,0,10.08,3.18,10.08,11.67v78.78c0,1.59-.8,2.39-2.52,2.39h-11.01c-1.59,0-2.39-.8-2.39-2.39v-73.34c0-.93-.27-1.33-1.06-1.33h-1.46c-.93,0-1.46,.26-1.86,1.06l-32.49,65.25c-3.85,7.83-6.9,10.74-14.32,10.74h-5.17c-7.43,0-10.48-2.92-14.32-10.74l-32.49-65.25c-.4-.8-.8-1.06-1.86-1.06h-1.33c-.8,0-1.19,.4-1.19,1.33v73.34c0,1.59-.8,2.39-2.39,2.39h-11.01c-1.59,0-2.39-.8-2.39-2.39v-78.78c0-8.49,2.12-11.67,9.95-11.67h11.94Z"/><path class="c" d="M722.89,179.96c20.03,0,28.12,9.42,28.12,27.06v9.02c0,17.77-8.09,27.19-28.12,27.19h-57.96v27.19c0,1.59-.8,2.39-2.39,2.39h-11.67c-1.59,0-2.39-.8-2.39-2.39v-86.47c0-2.65,1.33-3.98,3.98-3.98h70.43Zm-57.96,48.94h54.78c10.74,0,14.72-4.91,14.72-14.46v-5.17c0-9.55-3.98-14.46-14.72-14.46h-53.18c-1.06,0-1.59,.53-1.59,1.59v32.49Z"/><path class="c" d="M778.59,179.96c1.59,0,2.39,.8,2.39,2.39v53.85c0,16.05,5.04,21.22,20.82,21.22h53.72c1.72,0,2.52,.8,2.52,2.39v10.61c0,1.59-.8,2.39-2.52,2.39h-54.25c-26.66,0-36.74-9.55-36.74-35.01v-55.44c0-1.59,.8-2.39,2.39-2.39h11.67Z"/><path class="c" d="M964.54,179.96c1.59,0,2.39,.8,2.39,2.39v10.21c0,1.72-.8,2.52-2.39,2.52h-58.09c-15.78,0-20.82,5.04-20.82,21.09v3.05h78.12c1.59,0,2.39,.66,2.39,2.39v8.49c0,1.59-.8,2.39-2.39,2.39h-78.12v4.11c0,16.05,5.04,21.09,20.82,21.09h58.09c1.59,0,2.39,.8,2.39,2.52v10.21c0,1.59-.8,2.39-2.39,2.39h-58.22c-26.66,0-36.74-9.55-36.74-35.01v-22.81c0-25.47,10.08-35.01,36.74-35.01h58.22Z"/><path class="c" d="M1074.48,179.96c1.59,0,2.39,.8,2.39,2.39v10.21c0,1.72-.8,2.52-2.39,2.52h-67.91c-6.37,0-8.75,3.58-8.75,9.28v5.57c0,6.1,2.65,9.28,8.75,9.28h51.73c14.59,0,22.02,7.83,22.02,21.75v10.87c0,12.47-6.76,20.96-22.28,20.96h-74.14c-1.59,0-2.39-.8-2.39-2.39v-10.21c0-1.72,.8-2.52,2.39-2.52h71.09c6.37,0,8.75-3.58,8.75-9.28v-6.63c0-6.1-2.65-9.28-8.62-9.28h-51.73c-14.59,0-22.02-7.83-22.02-21.75v-9.68c0-12.6,6.76-21.09,22.15-21.09h70.96Z"/></g><g><path class="c" d="M400.39,0c17.35,0,24.79,3.15,30.87,22.76l28.17,91.48c.45,1.35,1.35,2.03,2.7,2.03h3.15c1.35,0,2.25-.68,2.7-2.03l27.94-91.48c6.08-19.6,13.52-22.76,30.87-22.76h32.9c20.73,0,25.46,7.89,25.46,30.64v120.32c0,4.51-2.25,6.76-6.76,6.76h-31.77c-4.51,0-6.76-2.25-6.76-6.76V47.32c0-1.58-.45-2.25-1.58-2.25h-1.58c-1.35,0-2.25,.45-2.48,1.58l-26.14,81.57c-7.21,22.53-17.8,29.52-37.63,29.52h-14.87c-19.83,0-30.42-6.99-37.63-29.52l-26.14-81.57c-.23-1.13-1.13-1.58-2.48-1.58h-1.58c-1.13,0-1.58,.68-1.58,2.25v103.65c0,4.51-2.25,6.76-6.76,6.76h-31.77c-4.51,0-6.76-2.25-6.76-6.76V30.64c0-22.76,4.73-30.64,25.46-30.64h34.02Z"/><path class="c" d="M716.74,0c15.32,0,24.79,4.28,34.25,22.76l66.02,128.21c2.03,3.83,1.35,6.76-3.6,6.76h-39.88c-3.6,0-5.18-.9-6.53-3.6l-11.72-23.66h-89.68l-11.49,23.66c-1.35,2.7-2.93,3.6-6.53,3.6h-41.01c-4.96,0-5.63-2.93-3.6-6.76L667.62,22.76c9.46-18.48,18.93-22.76,31.09-22.76h18.03Zm-34.02,95.09h54.98l-24.79-49.8c-.68-1.13-1.35-1.58-2.48-1.58h-1.13c-1.13,0-1.8,.45-2.48,1.58l-24.11,49.8Z"/><path class="c" d="M875.37,0c4.51,0,6.76,2.25,6.76,6.76V150.97c0,4.51-2.25,6.76-6.76,6.76h-33.8c-4.51,0-6.76-2.25-6.76-6.76V6.76c0-4.51,2.25-6.76,6.76-6.76h33.8Z"/><path class="c" d="M1068.25,0c4.51,0,6.76,2.25,6.76,6.76v29.29c0,4.51-2.25,6.76-6.76,6.76h-107.71c-3.83,0-5.86,2.03-5.86,6.31v4.06c0,4.28,1.8,6.31,5.63,6.31h77.51c27.72,0,43.04,15.32,43.04,41.69v17.8c0,23.21-14.65,38.76-43.71,38.76h-122.8c-4.51,0-6.76-2.25-6.76-6.76v-29.29c0-4.51,2.25-6.76,6.76-6.76h113.34c3.83,0,5.86-2.03,5.86-6.31v-5.18c0-4.28-1.8-6.31-5.63-6.31h-77.51c-27.72,0-43.04-15.32-43.04-41.69v-16.67c0-23.21,14.65-38.76,43.71-38.76h117.17Z"/></g></g><path class="b" d="M157.74,272.8h-44.55c-9.56,0-17.34-7.78-17.34-17.34v-78.51H17.34c-9.56,0-17.34-7.78-17.34-17.34v-46.42c0-9.56,7.78-17.34,17.34-17.34h52.1c4.79,0,8.67,3.88,8.67,8.67s-3.88,8.67-8.67,8.67H17.34v46.42H95.85c9.56,0,17.34,7.78,17.34,17.34v78.51h44.55v-18.85c0-14.66-2.79-28.98-8.29-42.56l-44.05-108.79c-6.34-15.66-9.56-32.17-9.56-49.07V17.34C95.85,7.78,103.63,0,113.19,0h46.42C169.17,0,176.95,7.78,176.95,17.34V95.85h78.51c9.56,0,17.34,7.78,17.34,17.34v46.42c0,9.56-7.78,17.34-17.34,17.34h-53.58c-4.79,0-8.67-3.88-8.67-8.67s3.88-8.67,8.67-8.67h53.58v-46.42h-78.51c-9.56,0-17.34-7.78-17.34-17.34V17.34h-46.42v18.85c0,14.66,2.79,28.98,8.29,42.56l44.05,108.79c6.34,15.66,9.56,32.17,9.56,49.07v18.85c0,9.56-7.78,17.34-17.34,17.34Z"/></svg>