<?xml version="1.0" standalone="no"?>
<!DOCTYPE svg PUBLIC "-//W3C//DTD SVG 1.1//EN" "http://www.w3.org/Graphics/SVG/1.1/DTD/svg11.dtd">
<svg id="a" xmlns="http://www.w3.org/2000/svg" viewBox="0 0 331.08 331.08" width="331.0799865722656" height="331.0799865722656"><defs><style>.b{fill:#45e5e5;}</style></defs><path class="b" d="M191.44,331.08h-54.07c-11.6,0-21.04-9.44-21.04-21.04v-95.29H21.04c-11.6,0-21.04-9.44-21.04-21.04v-56.34c0-11.6,9.44-21.04,21.04-21.04h63.23c5.81,0,10.52,4.71,10.52,10.52s-4.71,10.52-10.52,10.52H21.04v56.34H116.33c11.6,0,21.04,9.44,21.04,21.04v95.29h54.07v-22.88c0-17.79-3.38-35.17-10.06-51.65L127.93,103.47c-7.7-19.01-11.6-39.04-11.6-59.55V21.04C116.33,9.44,125.77,0,137.37,0h56.34C205.31,0,214.75,9.44,214.75,21.04V116.33h95.29c11.6,0,21.04,9.44,21.04,21.04v56.34c0,11.6-9.44,21.04-21.04,21.04h-65.03c-5.81,0-10.52-4.71-10.52-10.52s4.71-10.52,10.52-10.52h65.03v-56.34h-95.29c-11.6,0-21.04-9.44-21.04-21.04V21.04h-56.34v22.88c0,17.79,3.38,35.17,10.06,51.65l53.46,132.03c7.7,19.01,11.6,39.04,11.6,59.55v22.88c0,11.6-9.44,21.04-21.04,21.04Z"/></svg>