<?xml version="1.0" standalone="no"?>
<!DOCTYPE svg PUBLIC "-//W3C//DTD SVG 1.1//EN" "http://www.w3.org/Graphics/SVG/1.1/DTD/svg11.dtd">
<svg id="a" xmlns="http://www.w3.org/2000/svg" viewBox="0 0 331.08 331.08" width="331.0799865722656" height="331.0799865722656"><defs><style>.b{fill:#45e5e5;}.c{fill:#10293f;}</style></defs><rect class="c" x="16" y="16" width="299.08" height="299.08" rx="37.4" ry="37.4"/><path class="b" d="M181.06,264.7h-32.39c-6.95,0-12.6-5.65-12.6-12.6v-57.07h-57.07c-6.95,0-12.6-5.65-12.6-12.6v-33.74c0-6.95,5.65-12.6,12.6-12.6h37.87c3.48,0,6.3,2.82,6.3,6.3s-2.82,6.3-6.3,6.3h-37.87v33.74h57.07c6.95,0,12.6,5.65,12.6,12.6v57.07h32.39v-13.7c0-10.65-2.03-21.06-6.03-30.94l-32.02-79.08c-4.61-11.38-6.95-23.39-6.95-35.67v-13.7c0-6.95,5.65-12.6,12.6-12.6h33.74c6.95,0,12.6,5.65,12.6,12.6v57.07h57.07c6.95,0,12.6,5.65,12.6,12.6v33.74c0,6.95-5.65,12.6-12.6,12.6h-38.95c-3.48,0-6.3-2.82-6.3-6.3s2.82-6.3,6.3-6.3h38.95v-33.74h-57.07c-6.95,0-12.6-5.65-12.6-12.6v-57.07h-33.74v13.7c0,10.65,2.03,21.06,6.03,30.94l32.02,79.08c4.61,11.39,6.95,23.39,6.95,35.67v13.7c0,6.95-5.65,12.6-12.6,12.6Z"/></svg>